# xmcd
#
# Track frame offsets: 
#        150
#        11594
#        22898
#        34128
#        46761
#        59407
#        73128
#        83280
#        96002
#        106459
#        118903
#        131424
#        144438
#        155135
#        169861
#        182825
#        196961
#        209356
#        221781
#        232343
#        244807
#        258251
#        269066
#        280235
#        292273
#        302912
#        312039
#        324973
#
# Disc length: 4464 seconds
#
# Revision: 0
# Processed by: cddbd v1.5.2PL0 Copyright (c) Steve Scherf et al.
# Submitted via: ExactAudioCopy v0.99pb3
#
DISCID=a7116e1c
DTITLE=Coasters, The - There's A Riot Goin' On: The Coasters On Atco (
DTITLE=Disc 1)
DYEAR=2007
DGENRE=R&B/Soul
TTITLE0=The Hatchet Man (The Robins)
TTITLE1=I Love Paris (The Robins)
TTITLE2=Waddya Want? (The Robins)
TTITLE3=If Teardrops Were Kisses (The Robins)
TTITLE4=Wrap It Up (The Robins)
TTITLE5=Riot In Cell Block #9 (The Robins)
TTITLE6=Loop De Loop Mambo (The Robins)
TTITLE7=One Kiss (The Robins)
TTITLE8=I Must Be Dreamin' (The Robins)
TTITLE9=Framed (The Robins)
TTITLE10=Smokey Joe's Cafe (The Robins)
TTITLE11=Just Like A Fool (The Robins)
TTITLE12=Brazil
TTITLE13=Down In Mexico
TTITLE14=One Kiss Led To Another
TTITLE15=Turtle Dovin'
TTITLE16=Lola
TTITLE17=Sweet Georgia Brown
TTITLE18=Young Blood
TTITLE19=Searchin'
TTITLE20=(When She Wants Good Lovin') My Baby Comes To Me
TTITLE21=Idol With The Golden Head
TTITLE22=What Is The Secret Of Your Success?
TTITLE23=Wait A Minute
TTITLE24=Dance!
TTITLE25=Gee, Golly
TTITLE26=Zing! Went The Strings Of My Heart
TTITLE27=Three Cool Cats
EXTD=
EXTT0=
EXTT1=
EXTT2=
EXTT3=
EXTT4=
EXTT5=
EXTT6=
EXTT7=
EXTT8=
EXTT9=
EXTT10=
EXTT11=
EXTT12=
EXTT13=
EXTT14=
EXTT15=
EXTT16=
EXTT17=
EXTT18=
EXTT19=
EXTT20=
EXTT21=
EXTT22=
EXTT23=
EXTT24=
EXTT25=
EXTT26=
EXTT27=
PLAYORDER=
